# xmcd
#
# Track frame offsets: 
#        150
#        21043
#        45662
#        71927
#        93705
#        112047
#        133859
#        163409
#        186050
#        204731
#        224104
#        246820
#        276742
#        301621
#
# Disc length: 4297 seconds
#
# Revision: 1
# Processed by: cddbd v1.5.2PL0 Copyright (c) Steve Scherf et al.
# Submitted via: ExactAudioCopy v0.99pb4
#
DISCID=e410c70e
DTITLE=Jörg Fauser - Der Schneemann (gel. v. Heikko Deutschmann)
DYEAR=2007
DGENRE=Hörbuch
TTITLE0=201
TTITLE1=202
TTITLE2=203
TTITLE3=204
TTITLE4=205
TTITLE5=206
TTITLE6=207
TTITLE7=208
TTITLE8=209
TTITLE9=210
TTITLE10=211
TTITLE11=212
TTITLE12=213
TTITLE13=214
EXTD=
EXTT0=
EXTT1=
EXTT2=
EXTT3=
EXTT4=
EXTT5=
EXTT6=
EXTT7=
EXTT8=
EXTT9=
EXTT10=
EXTT11=
EXTT12=
EXTT13=
PLAYORDER=
